# xmcd CD database file
#
# Track frame offsets:
#	150
#	17498
#	38249
#	48587
#	77826
#	89975
#	106659
#	125286
#	155498
#	170967
#	189479
#	208354
#
# Disc length: 3269 seconds
#
# Revision: 0
# Processed by: cddbd v1.5.2PL0 Copyright (c) Steve Scherf et al.
# Submitted via: CDex 1.70beta2
#
DISCID=a60cc30c
DTITLE=Henri Texier - Love Songs Reflexions
DYEAR=2008
DGENRE=Jazz
TTITLE0=Beautiful love
TTITLE1=Intuition
TTITLE2=I love you
TTITLE3=In a sentimental mood
TTITLE4=Dark song
TTITLE5=Easy to love
TTITLE6=Mistreated
TTITLE7=God bless the child
TTITLE8=A vif
TTITLE9=Nostalgique
TTITLE10=Emouvantes blues
TTITLE11=My one and only love
EXTD=YEAR: 2008
EXTT0=
EXTT1=
EXTT2=
EXTT3=
EXTT4=
EXTT5=
EXTT6=
EXTT7=
EXTT8=
EXTT9=
EXTT10=
EXTT11=
PLAYORDER=
